<?xml version="1.0" encoding="utf-8"?>
<!-- Generator: Adobe Illustrator 22.1.0, SVG Export Plug-In . SVG Version: 6.00 Build 0)  -->
<svg version="1.1" id="Layer_1" xmlns="http://www.w3.org/2000/svg" xmlns:xlink="http://www.w3.org/1999/xlink" x="0px" y="0px"
	 viewBox="0 0 592 224" style="enable-background:new 0 0 592 224;" xml:space="preserve">
<style type="text/css">
	.st0{fill:#FFFFFF;}
</style>
<g id="drjDpt.tif">
	<g>
		<path class="st0" d="M340.41,0c0.03,0.67,0.08,1.33,0.08,2c0,61.46,0,122.92,0,184.38c0,0.66,0,1.32,0,2.12
			c-13.51,0-26.91,0-40.49,0c0-30.61,0-61.28,0-91.95c-0.14-0.03-0.28-0.07-0.43-0.1c-0.19,0.57-0.41,1.13-0.58,1.71
			c-8.36,29.6-16.73,59.2-25.05,88.81c-0.37,1.32-0.89,1.71-2.25,1.7c-12.65-0.06-25.3-0.06-37.95,0c-1.4,0.01-1.99-0.38-2.35-1.78
			c-6.08-23.36-12.22-46.71-18.35-70.06c-0.12-0.47-0.29-0.93-0.55-1.79c-1.33,5.02-2.56,9.63-3.77,14.25
			c-5.05,19.26-10.1,38.53-15.11,57.8c-0.3,1.14-0.73,1.59-1.99,1.58c-12.82-0.05-25.63-0.05-38.45,0
			c-1.26,0.01-1.69-0.44-2.01-1.58c-8.1-28.98-16.23-57.95-24.36-86.93c-0.13-0.47-0.28-0.94-0.68-1.39c0,29.79,0,59.58,0,89.48
			c-12.98,0-25.77,0-38.74,0c0-5.34,0-10.65,0-16.43c-0.45,0.56-0.62,0.74-0.75,0.95c-7.37,11.37-18.03,17.42-31.3,19.05
			c-9.82,1.2-19.48,0.49-28.64-3.63C11,181.14,2.56,168.78,0.4,151.89c-0.08-0.6-0.22-1.18-0.33-1.77c0-33.21,0-66.42,0-99.63
			c13.52,0,27.03,0,40.72,0c0,0.96,0,1.67,0,2.39c0,27.52-0.01,55.05,0.02,82.57c0,2.39,0.11,4.79,0.4,7.16
			c1.02,8.35,5.79,14.11,13.46,15.74c3.22,0.69,6.64,0.86,9.95,0.72c9.5-0.41,15.12-4.82,18.14-13.81
			c1.81-5.39,2.55-10.96,2.56-16.6c0.07-25.29,0.05-50.59,0.06-75.88c0-0.7,0-1.4,0-2.17c23.51,0,46.78,0,70.2,0
			c6.68,27.44,13.35,54.88,20.03,82.32c0.11,0,0.21,0,0.32-0.01c5.29-27.44,10.57-54.89,15.86-82.33c13.85,0,27.49,0,41.26,0
			c6.3,27.41,12.59,54.8,18.88,82.18c0.13,0,0.26,0.01,0.4,0.01c6.1-27.38,12.21-54.75,18.35-82.3c9.74,0,19.4,0,29.21,0
			c0-0.86,0-1.51,0-2.17c0-15.38,0-30.76,0-46.13c0-0.72,0.05-1.44,0.08-2.17C313.44,0,326.93,0,340.41,0z"/>
		<path class="st0" d="M398.92,224c-3.12-0.5-6.29-0.83-9.37-1.52c-16.8-3.8-28.17-14.12-35.07-29.62
			c-1.55-3.47-2.68-7.13-4.1-10.96c0.63,0.09,0.8,0.06,0.92,0.13c9.09,5.46,19.06,8.29,29.5,9.46c12.69,1.43,25.36,1.24,37.92-1.26
			c9.05-1.8,17.67-4.79,24.79-10.89c2.97-2.55,5.47-5.65,8.24-8.55c0.04,0.06,0.3,0.38,0.51,0.72
			c7.19,11.43,17.79,17.69,30.82,20.02c8.44,1.51,16.87,1.06,25.15-1.27c9.66-2.71,17.29-8.27,22.95-16.54
			c0.31-0.46,0.62-0.92,0.94-1.37c0.03-0.04,0.1-0.04,0.36-0.13c0,5.37,0,10.67,0,16.09c12.99,0,25.77,0,38.66,0
			c0-45.91,0-91.74,0-137.68c-13.47,0-26.87,0-40.57,0c0,0.68,0,1.37,0,2.06c0,24.18,0.02,48.36-0.01,72.54
			c-0.01,6.36-0.46,12.69-2.27,18.84c-2.99,10.16-9.15,14.92-19.79,15.04c-2.93,0.03-5.94-0.13-8.78-0.78
			c-7.72-1.78-11.85-7.08-13.16-14.67c-0.47-2.73-0.64-5.54-0.64-8.31c-0.05-27.47-0.03-54.94-0.03-82.4c0-0.72,0-1.44,0-2.3
			c-13.54,0-26.98,0-40.61,0c0,5.19,0,10.34,0,15.83c-0.42-0.33-0.59-0.41-0.69-0.55c-6.43-9.16-15.49-14.27-26.2-16.52
			c-18.21-3.82-36.38-3.65-54.39,1.36c-5.06,1.41-9.82,3.59-14.24,6.45c-0.26,0.17-0.55,0.32-0.97,0.56
			c-0.05-0.55-0.11-0.92-0.11-1.29c0-18.5,0-37,0-55.49c0-0.33,0.05-0.66,0.08-1c64.08,0,128.16,0,192.24,0
			c2.42,0.33,4.84,0.61,7.25,1.01c12.01,2.01,22.33,7.18,30.09,16.74c9.31,11.48,13.47,24.92,13.51,39.51
			c0.13,54.97,0.05,109.94,0.05,164.91c0,0.61-0.05,1.22-0.08,1.83C527.53,224,463.22,224,398.92,224z"/>
		<path class="st0" d="M348.79,144.38c0-8.77,0-17.27,0-25.99c0.8,0.53,1.43,0.95,2.06,1.37c8.66,5.78,18.29,9.42,28.21,12.25
			c8.61,2.46,17.35,4.44,25.98,6.8c2.61,0.71,5.13,1.84,7.57,3.03c7.07,3.46,6.55,14.15,0.2,17.66c-3.12,1.73-6.48,2.65-9.97,3.12
			c-6.3,0.84-12.59,0.9-18.67-1.2c-6.43-2.23-11.32-6.16-13.11-13.09c-0.32-1.23-0.41-2.52-0.64-3.96
			C363.29,144.38,356.13,144.38,348.79,144.38z"/>
		<path class="st0" d="M415.26,92.36c9.99,0,19.88,0,29.87,0c0,8.65,0,17.14,0,25.63c-0.13,0.03-0.27,0.1-0.32,0.06
			c-8.03-5.9-17.22-9.2-26.72-11.73c-9.88-2.63-19.84-4.99-29.68-7.76c-3.6-1.01-7.13-2.55-10.41-4.37
			c-8.19-4.56-5.72-13.62,0.32-16.93c3-1.64,6.25-2.34,9.59-2.61c4.78-0.38,9.57-0.47,14.28,0.73c7.83,1.99,11.39,7.59,12.76,15.05
			C415.05,91.03,415.14,91.63,415.26,92.36z"/>
	</g>
</g>
</svg>
